<svg width="32" height="28" viewBox="0 0 32 28" fill="none" xmlns="http://www.w3.org/2000/svg">
<path d="M13.7566 19.8235C12.1748 19.8235 10.8879 20.9782 10.8879 22.3974C10.8879 23.8168 12.1748 24.9715 13.7566 24.9715C15.3381 24.9715 16.625 23.8168 16.625 22.3974C16.625 20.9782 15.3381 19.8235 13.7566 19.8235ZM13.7566 23.8499C12.864 23.8499 12.1379 23.1983 12.1379 22.3974C12.1379 21.5967 12.864 20.9451 13.7566 20.9451C14.6489 20.9451 15.375 21.5967 15.375 22.3974C15.375 23.1983 14.6489 23.8499 13.7566 23.8499Z" fill="black"/>
<path d="M25.0725 17.8785C23.8699 17.8785 22.8914 18.7564 22.8914 19.8355C22.8914 20.9147 23.8699 21.7925 25.0725 21.7925C26.2751 21.7925 27.2534 20.9147 27.2534 19.8355C27.2534 18.7564 26.2751 17.8785 25.0725 17.8785ZM25.0725 20.6711C24.5591 20.6711 24.1414 20.2963 24.1414 19.8355C24.1414 19.3748 24.5591 19.0002 25.0725 19.0002C25.5857 19.0002 26.0034 19.375 26.0034 19.8355C26.0034 20.2963 25.5857 20.6711 25.0725 20.6711Z" fill="black"/>
<path d="M6.84448 14.9699C5.71558 14.9699 4.79736 15.794 4.79736 16.807C4.79736 17.8198 5.71558 18.644 6.84448 18.644C7.97314 18.644 8.8916 17.8198 8.8916 16.807C8.8916 15.794 7.97314 14.9699 6.84448 14.9699ZM6.84448 17.5223C6.40479 17.5223 6.04736 17.2014 6.04736 16.807C6.04736 16.4127 6.40479 16.0918 6.84448 16.0918C7.28418 16.0918 7.6416 16.4127 7.6416 16.807C7.6416 17.2014 7.28394 17.5223 6.84448 17.5223Z" fill="black"/>
<path d="M23.9688 7.0249C25.1118 7.0249 26.0417 6.19044 26.0417 5.16473C26.0417 4.13902 25.1118 3.30457 23.9688 3.30457C22.8257 3.30457 21.8958 4.13902 21.8958 5.16473C21.8958 6.19044 22.8257 7.0249 23.9688 7.0249ZM23.9688 4.42623C24.4226 4.42623 24.7917 4.75747 24.7917 5.16473C24.7917 5.57199 24.4226 5.90323 23.9688 5.90323C23.5149 5.90323 23.1458 5.57199 23.1458 5.16473C23.1458 4.75747 23.5149 4.42623 23.9688 4.42623Z" fill="black"/>
<path d="M31.9646 11.9195L31.8989 11.5017C31.2974 7.66919 29.4951 4.0974 26.6865 1.17187C25.5083 -0.0553884 23.5212 -0.358369 21.9619 0.45177L13.4714 4.86262C13.249 4.9783 13.1279 5.20416 13.1665 5.43222C13.2449 5.89469 13.0791 6.34905 12.7114 6.67897C12.1282 7.20234 11.2026 7.24923 10.5591 6.78807C10.3579 6.64392 10.0786 6.62508 9.85596 6.74097L1.80884 10.9216C1.2771 11.1976 0.841797 11.5873 0.53125 12.0446C0.433594 12.1267 0.365723 12.2365 0.342773 12.3602C0.121094 12.785 0 13.2541 0 13.7365V20.3843C0 20.6941 0.279785 20.9451 0.625 20.9451C1.51733 20.9451 2.24341 21.5967 2.24341 22.3974C2.24341 23.1983 1.51733 23.8498 0.625 23.8498C0.279785 23.8498 0 24.1009 0 24.4107V24.7472C0 26.5407 1.62622 28 3.625 28H21.7253C22.0706 28 22.3503 27.7489 22.3503 27.4392C22.3503 26.6382 23.0764 25.9867 23.9688 25.9867C24.8611 25.9867 25.5872 26.6382 25.5872 27.4392C25.5872 27.7489 25.8669 28 26.2122 28H28.375C30.3738 28 32 26.5407 32 24.7472V12.3732C32 12.2218 31.988 12.0693 31.9646 11.9195ZM28.375 26.8783H26.7688C26.4827 25.7278 25.3357 24.865 23.9688 24.865C22.6018 24.865 21.4548 25.7278 21.1687 26.8783H3.625C2.37598 26.8783 1.34888 26.0086 1.25684 24.9084C2.5354 24.6495 3.49365 23.622 3.49365 22.3974C3.49365 21.1708 2.53223 20.1416 1.25 19.885V13.7365C1.25 13.4867 1.30029 13.2429 1.39258 13.0142H5.646C5.99097 13.0142 6.271 12.7631 6.271 12.4534C6.271 12.1436 5.99097 11.8925 5.646 11.8925H2.43457C2.43457 11.8923 2.43481 11.8923 2.43506 11.8923L10.144 7.88739C11.25 8.45699 12.667 8.30495 13.5952 7.47202C14.1326 6.98984 14.4316 6.33284 14.4348 5.6583L22.5881 1.42249C23.6277 0.882471 24.9531 1.0849 25.7395 1.90402C28.3914 4.66611 30.0933 8.03899 30.6611 11.6579L30.698 11.8925H16.8992C17.1572 11.2397 17.8518 10.7709 18.6667 10.7709C19.012 10.7709 19.2917 10.5198 19.2917 10.21C19.2917 9.90025 19.012 9.64919 18.6667 9.64919C17.1575 9.64919 15.895 10.614 15.6045 11.8925H11.0625C10.7173 11.8925 10.4375 12.1436 10.4375 12.4534C10.4375 12.7631 10.7173 13.0142 11.0625 13.0142H15.6045C15.895 14.2925 17.1575 15.2575 18.6667 15.2575C20.1758 15.2575 21.4385 14.2925 21.7288 13.0142H30.75V24.7472C30.75 25.9223 29.6846 26.8783 28.375 26.8783ZM20.4341 13.0142C20.176 13.667 19.4814 14.1358 18.6665 14.1358C17.8518 14.1358 17.1572 13.667 16.8992 13.0142H20.4341Z" fill="black"/>
<path d="M8.4375 11.8925C8.27319 11.8925 8.11182 11.9525 7.99561 12.0568C7.87939 12.1611 7.8125 12.3059 7.8125 12.4533C7.8125 12.6008 7.87939 12.7456 7.99561 12.8499C8.11182 12.9542 8.27319 13.0142 8.4375 13.0142C8.60181 13.0142 8.76318 12.9542 8.87939 12.8499C8.99561 12.7456 9.0625 12.6008 9.0625 12.4533C9.0625 12.3059 8.99561 12.1611 8.87939 12.0568C8.76318 11.9525 8.60181 11.8925 8.4375 11.8925Z" fill="black"/>
</svg>
