<svg width="32" height="32" viewBox="0 0 32 32" fill="none" xmlns="http://www.w3.org/2000/svg">
<path d="M31.5613 11.0249C31.9061 9.67715 31.8314 8.30792 31.3488 7.15918C31.0676 6.48972 30.663 5.92819 30.1647 5.5004L30.417 4.22479C30.5281 3.6632 30.7978 3.14461 31.1969 2.72507C31.5939 2.30784 31.5989 1.67407 31.2087 1.25085L30.3052 0.270904C30.1222 0.0725409 29.851 -0.0265781 29.5789 0.00623239C29.3071 0.0389179 29.0685 0.199221 28.9407 0.435019L28.5445 1.16548C28.235 1.73607 27.9709 2.33116 27.7536 2.94149C27.5626 2.55027 27.29 2.1476 26.8891 1.79588C27.0499 1.42521 27.1884 1.01861 27.2998 0.581698C27.3638 0.330463 27.2066 0.0762282 26.9485 0.0138569C26.6908 -0.0483268 26.4296 0.104601 26.3655 0.355899C26.2866 0.665318 26.1906 0.959238 26.0813 1.23303C25.0225 0.654881 23.73 0.481141 22.9358 1.10398C22.3925 1.52995 22.023 2.41259 22.3451 3.15236C22.6641 3.88494 23.5354 4.20361 24.2113 4.18823C25.0385 4.1703 25.8216 3.61195 26.4275 2.66882C26.8348 3.09192 27.1292 3.78282 27.1631 4.51609C26.3463 4.53215 25.5146 4.73232 24.7233 5.11468C23.4686 5.72095 22.3873 6.73645 21.6775 7.97663C21.2196 8.78821 20.717 9.58841 20.1827 10.3566C19.9849 10.3089 19.7763 10.3024 19.5724 10.3382C18.9719 10.4437 18.5044 10.909 18.4093 11.4962C18.3557 11.8273 18.4211 12.1583 18.594 12.4403C17.4644 13.7958 16.2059 15.0626 14.8517 16.2073C14.651 16.377 14.6295 16.673 14.8037 16.8685C14.978 17.0641 15.2821 17.085 15.4827 16.9153C16.9112 15.7078 18.2365 14.3684 19.4218 12.9342C19.6437 12.6657 19.6523 12.2786 19.4427 11.9928C19.3907 11.9218 19.3341 11.8034 19.3602 11.6423C19.391 11.4519 19.5486 11.295 19.7432 11.2608C19.829 11.2457 19.9122 11.2515 19.9906 11.2778C20.33 11.3919 20.7103 11.267 20.9156 10.9742C21.4904 10.154 22.0306 9.29736 22.5197 8.43054C23.6179 6.51197 25.6446 5.35691 27.5325 5.46297C27.3632 5.59108 27.1932 5.71783 27.0226 5.84144C26.359 6.32379 25.7666 6.89951 25.2575 7.55553C25.1748 7.54116 25.0899 7.53322 25.003 7.53322C24.2067 7.53322 23.5588 8.16418 23.5588 8.9397C23.5588 9.26987 23.6765 9.57366 23.8729 9.81389C22.3854 12.3431 20.5599 14.6662 18.4398 16.728C18.2754 16.6646 18.0967 16.6294 17.9095 16.6294C17.1131 16.6294 16.4652 17.2603 16.4652 18.0358C16.4652 18.1798 16.4876 18.3187 16.5291 18.4496C13.1007 21.307 9.18662 23.4345 4.88899 24.7746C3.60262 25.177 2.41815 25.8522 1.46311 26.7276C1.30864 26.8696 1.15103 27.0106 0.992132 27.1506C1.21231 25.3222 2.73209 23.5786 4.86101 22.8592C5.39982 22.6807 5.94427 22.4839 6.47949 22.2743C6.82545 22.1388 7.03197 21.7818 6.97055 21.4254C6.96433 21.3895 6.96259 21.3525 6.96529 21.3154C6.98281 21.0772 7.1967 20.8819 7.4421 20.8803C7.59221 20.8787 7.728 20.9434 7.8208 21.0562C8.05202 21.337 8.46305 21.4228 8.79804 21.2603C10.519 20.4256 12.1722 19.4323 13.7118 18.3078C13.9244 18.1525 13.9675 17.8587 13.8081 17.6515C13.6486 17.4445 13.347 17.4025 13.1342 17.5578C11.6741 18.6243 10.1085 19.5692 8.4791 20.3674C8.20565 20.0934 7.83216 19.942 7.4353 19.9429C6.68677 19.948 6.05857 20.5215 6.00511 21.2485C6.00017 21.3155 6.00017 21.3827 6.00511 21.4495C5.52329 21.636 5.03447 21.8116 4.54823 21.9727C3.17355 22.4373 1.95885 23.2978 1.12793 24.396C0.246041 25.5613 -0.13862 26.9261 0.0446621 28.2373C0.0452397 28.2414 0.046074 28.2454 0.0466515 28.2494C0.046844 28.2504 0.0467799 28.2514 0.0469724 28.2524C0.0471008 28.2532 0.0474216 28.254 0.0476141 28.2549C0.201055 29.3379 0.850692 30.312 1.87941 30.9992C2.86615 31.6584 4.09118 32 5.39244 32C5.97989 32 6.58287 31.9304 7.18643 31.7889C7.44486 31.7283 7.60395 31.4752 7.54177 31.2235C7.47952 30.9718 7.21955 30.8169 6.96118 30.8775C5.31004 31.2645 3.61391 31.0211 2.42399 30.2262C1.89975 29.8761 1.50347 29.4362 1.25865 28.9449C1.50546 29.0315 1.75318 29.1159 2.0005 29.1967C2.664 29.4148 3.3748 29.5238 4.09888 29.5238C4.84356 29.5238 5.60235 29.4085 6.33798 29.1781C6.66296 29.0768 6.98961 28.9701 7.31318 28.8598C7.57828 29.1604 7.97084 29.3513 8.40863 29.3513C9.20497 29.3513 9.85288 28.7203 9.85288 27.9448C9.85288 27.9281 9.85217 27.9115 9.85159 27.8949C11.5616 27.1757 13.2277 26.3302 14.8139 25.3765C15.0629 25.5748 15.3809 25.6941 15.7269 25.6941C16.5232 25.6941 17.1711 25.0631 17.1711 24.2876C17.1711 24.1462 17.1494 24.0097 17.1093 23.8809C19.9687 21.8722 22.5259 19.4966 24.7196 16.811C24.8595 16.8552 25.0087 16.8793 25.1636 16.8793C25.9599 16.8793 26.6078 16.2483 26.6078 15.4728C26.6078 15.1736 26.5111 14.8962 26.3469 14.6679C27.0335 13.692 27.6783 12.6763 28.2658 11.6433C28.3946 11.4168 28.3104 11.1316 28.0779 11.0062C27.8453 10.8808 27.5525 10.9627 27.4237 11.1892C26.8542 12.1906 26.2295 13.1753 25.5643 14.1218C25.437 14.086 25.3026 14.0663 25.1635 14.0663C24.3672 14.0663 23.7194 14.6973 23.7194 15.4728C23.7194 15.7563 23.8062 16.0202 23.9549 16.2413C21.8169 18.8562 19.3251 21.1693 16.5393 23.1255C16.3077 22.9714 16.028 22.8812 15.7269 22.8812C14.9306 22.8812 14.2827 23.5121 14.2827 24.2877C14.2827 24.3864 14.2933 24.4828 14.3133 24.5758C12.7738 25.5018 11.1572 26.3233 9.49786 27.0228C9.23289 26.7264 8.84303 26.5385 8.40876 26.5385C7.61242 26.5385 6.96452 27.1694 6.96452 27.9449C6.96452 27.958 6.96516 27.9709 6.96555 27.9838C6.65943 28.0879 6.35159 28.1897 6.04394 28.2857C4.80544 28.6736 3.44391 28.682 2.30771 28.3083C2.02027 28.2144 1.73238 28.1162 1.44629 28.0146C1.67597 27.8154 1.90232 27.6133 2.12353 27.41C2.97448 26.6299 4.03265 26.0273 5.1831 25.6674C9.58232 24.2957 13.5912 22.1218 17.1054 19.2037C17.3354 19.3544 17.6121 19.4425 17.9096 19.4425C18.7059 19.4425 19.3538 18.8115 19.3538 18.036C19.3538 17.7853 19.2858 17.5499 19.1673 17.3458C21.3188 15.2454 23.1738 12.8826 24.6892 10.3125C24.7904 10.3344 24.8953 10.3464 25.0032 10.3464C25.7995 10.3464 26.4474 9.7154 26.4474 8.93988C26.4474 8.59178 26.3166 8.27305 26.1007 8.02719C26.538 7.48091 27.0397 6.999 27.5979 6.59328C27.8423 6.41622 28.0861 6.23411 28.3275 6.04837C28.3806 6.34048 28.4299 6.6339 28.4751 6.92638C28.5919 7.6739 28.5332 8.48747 28.3052 9.27924C28.2334 9.52847 28.3827 9.78721 28.6386 9.85714C28.6821 9.86902 28.7259 9.8747 28.7688 9.8747C28.9792 9.8747 29.1724 9.73934 29.232 9.53241C29.4966 8.6134 29.564 7.66346 29.4268 6.7862C29.3879 6.53397 29.3455 6.28092 29.3007 6.02837C30.5797 6.93032 31.1474 8.8787 30.6057 10.8806C30.5273 11.1702 30.6291 11.482 30.8652 11.675C30.9861 11.7738 31.0484 11.919 31.036 12.0733C31.0202 12.2693 30.8711 12.4402 30.6733 12.4889C30.6147 12.5033 30.5583 12.507 30.5007 12.5002C30.1743 12.4614 29.8594 12.6142 29.699 12.8895C27.7154 16.2927 25.2257 19.3817 22.2992 22.0707C22.0083 22.3381 21.9623 22.7642 22.1898 23.084C22.2366 23.1497 22.2888 23.259 22.2716 23.4065C22.2462 23.6251 22.0561 23.8019 21.8297 23.8177C21.6999 23.8267 21.5749 23.7862 21.4779 23.7035C21.1755 23.4456 20.7343 23.4381 20.4289 23.6859C18.4587 25.284 16.3218 26.7052 14.0773 27.9102C13.7531 28.0843 13.5933 28.4476 13.6886 28.7936C13.7056 28.8552 13.7092 28.9197 13.6994 28.9854C13.6699 29.1832 13.502 29.348 13.3002 29.3773C13.1278 29.4022 12.9599 29.34 12.8513 29.2106C12.6185 28.9334 12.2198 28.8488 11.8816 29.0051C10.9413 29.4392 9.97327 29.8422 9.00436 30.2029C8.75607 30.2954 8.6317 30.5663 8.72668 30.8081C8.79997 30.9949 8.98261 31.1096 9.17635 31.1096C9.23347 31.1096 9.29154 31.0996 9.34815 31.0786C10.3055 30.7221 11.262 30.3254 12.193 29.8987C12.5168 30.2216 12.9748 30.3723 13.4423 30.3045C14.064 30.2142 14.5614 29.7272 14.6521 29.1202C14.6745 28.9704 14.6726 28.8211 14.6466 28.6749C16.8684 27.4738 18.986 26.0659 20.9446 24.4874C21.2196 24.6831 21.554 24.7767 21.8985 24.7528C22.591 24.7045 23.1501 24.1827 23.2281 23.5121C23.2624 23.2168 23.2011 22.9209 23.0547 22.6652C25.9852 19.9556 28.4841 16.8528 30.4853 13.4393C30.6272 13.4464 30.7692 13.4324 30.9092 13.3978C31.5108 13.2497 31.9474 12.7468 31.9956 12.1466C32.0293 11.727 31.8681 11.3151 31.5613 11.0249ZM24.1899 3.25104C23.8881 3.25779 23.3742 3.11448 23.2314 2.78644C23.0993 2.48315 23.2851 2.03355 23.5395 1.83412C23.7082 1.70182 23.9453 1.64076 24.2175 1.64076C24.6562 1.64076 25.1857 1.79956 25.6653 2.0748C25.2287 2.79263 24.6953 3.24004 24.1899 3.25104ZM25.1635 15.0037C25.429 15.0037 25.6451 15.2141 25.6451 15.4727C25.6451 15.7314 25.429 15.9418 25.1635 15.9418C24.8979 15.9418 24.6819 15.7314 24.6819 15.4727C24.6819 15.2141 24.898 15.0037 25.1635 15.0037ZM15.7268 23.8185C15.9924 23.8185 16.2085 24.0289 16.2085 24.2875C16.2085 24.5461 15.9924 24.7566 15.7268 24.7566C15.4613 24.7566 15.2452 24.5461 15.2452 24.2875C15.2452 24.0289 15.4613 23.8185 15.7268 23.8185ZM8.40857 27.4757C8.67412 27.4757 8.8902 27.6861 8.8902 27.9447C8.8902 28.2034 8.67412 28.4138 8.40857 28.4138C8.14302 28.4138 7.92694 28.2034 7.92694 27.9447C7.92694 27.6861 8.14302 27.4757 8.40857 27.4757ZM17.9095 18.5049C17.6439 18.5049 17.4278 18.2945 17.4278 18.0359C17.4278 17.7773 17.6439 17.5669 17.9095 17.5669C18.175 17.5669 18.3911 17.7773 18.3911 18.0359C18.3911 18.2945 18.175 18.5049 17.9095 18.5049ZM25.003 9.40879C24.7375 9.40879 24.5214 9.19837 24.5214 8.93976C24.5214 8.68115 24.7375 8.47072 25.003 8.47072C25.2686 8.47072 25.4847 8.68115 25.4847 8.93976C25.4847 9.19837 25.2686 9.40879 25.003 9.40879ZM29.3956 1.60332L29.7084 1.02673L30.4924 1.87706C30.5482 1.93762 30.5474 2.02824 30.4907 2.08792C29.9693 2.63607 29.6169 3.31366 29.4717 4.04737L29.2957 4.93762C29.0243 4.81194 28.6993 4.69539 28.2495 4.60689L28.4379 3.94775C28.6696 3.13667 28.9919 2.34784 29.3956 1.60332Z" fill="black"/>
</svg>
