<svg width="34" height="34" viewBox="0 0 34 34" fill="none" xmlns="http://www.w3.org/2000/svg">
<path d="M17 1C8.1775 1 1 8.1777 1 17C1 25.8223 8.1775 33 17 33C25.8223 33 33 25.8223 33 17C33 8.1777 25.8223 1 17 1ZM17 30.0909C9.78157 30.0909 3.90909 24.2184 3.90909 17C3.90909 9.78158 9.78157 3.90909 17 3.90909C24.2184 3.90909 30.0909 9.78158 30.0909 17C30.0909 24.2184 24.2184 30.0909 17 30.0909Z" fill="black" stroke="#EDEDED" stroke-width="2"/>
<path d="M14.2574 21.6039C13.8142 20.9339 12.9118 20.7502 12.2418 21.193C11.5717 21.6359 11.3877 22.5385 11.8308 23.2086L12.2319 23.8152C12.6735 24.4834 13.5751 24.6705 14.2475 24.2262C14.9176 23.7832 15.1016 22.8806 14.6585 22.2106L14.2574 21.6039Z" fill="black" stroke="#EDEDED"/>
<path d="M12.0471 13.0766L12.4064 12.4444C12.8034 11.7458 12.5591 10.8579 11.8605 10.461C11.1621 10.0642 10.2743 10.3085 9.87727 11.0067L9.5179 11.6389C9.12091 12.3375 9.36527 13.2254 10.0638 13.6224C10.7665 14.0219 11.6526 13.7703 12.0471 13.0766Z" fill="black" stroke="#EDEDED"/>
<path d="M22.0447 22.7738L21.3236 22.6789C20.5273 22.5734 19.7964 23.1347 19.6918 23.9312C19.5869 24.7275 20.1478 25.4583 20.9441 25.563L21.6651 25.6579C21.7295 25.6664 21.7935 25.6705 21.8568 25.6705C22.5755 25.6705 23.2008 25.1375 23.297 24.4056C23.4019 23.6093 22.841 22.8785 22.0447 22.7738Z" fill="black" stroke="#EDEDED"/>
<path d="M23.8204 11.4669C23.6082 10.6923 22.8092 10.2358 22.0334 10.4481C21.2586 10.6603 20.8025 11.4603 21.0147 12.2351L21.2067 12.9366C21.4173 13.7059 22.2138 14.1689 22.9936 13.9553C23.7684 13.7432 24.2245 12.9432 24.0124 12.1684L23.8204 11.4669Z" fill="black" stroke="#EDEDED"/>
<path d="M18.041 14.8306C17.4846 14.2511 16.5638 14.2323 15.9845 14.7889C15.405 15.3451 15.3864 16.2659 15.9428 16.8454L16.4466 17.37C17.0036 17.9503 17.9248 17.9674 18.5032 17.4117C19.0826 16.8555 19.1013 15.9347 18.5449 15.3552L18.041 14.8306Z" fill="black" stroke="#EDEDED"/>
</svg>
