<svg width="34" height="22" viewBox="0 0 34 22" fill="none" xmlns="http://www.w3.org/2000/svg">
<path d="M32.9807 5.42147C32.9487 2.97794 30.9575 1 28.5144 1C26.3318 1 24.511 2.57915 24.1245 4.65839C23.3572 4.99901 22.0244 5.54372 21.2302 5.67632C20.2727 5.83603 19.1155 5.8841 17.7908 5.81878C15.2605 5.69407 12.7344 4.8674 10.4853 3.42751C7.65527 1.61593 5.24487 1.192 2.66968 2.05293C1.6709 2.3869 1 3.32966 1 4.39935C1 4.74589 1.18774 5.06482 1.4895 5.2307C1.83447 5.41999 2.15698 5.58365 2.46899 5.74164C4.15918 6.59813 5.09033 7.06987 5.70727 9.66967C6.16821 11.6109 6.97461 13.2381 8.10449 14.5057C8.81054 15.2981 9.6455 15.9525 10.595 16.4612C10.0144 16.9312 9.64184 17.6512 9.64184 18.4569V20.0535C9.64184 20.5763 10.0615 21 10.5791 21H21.7441C22.2617 21 22.6816 20.5763 22.6816 20.0535V18.4569C22.6816 17.6549 22.3125 16.9379 21.7363 16.4676C24.1553 15.0437 25.6287 12.6219 25.998 9.45844C26.1938 7.78169 26.0293 6.31961 25.9145 5.59942C25.9194 5.56072 25.9226 5.52129 25.9226 5.48136C25.9226 4.05404 27.0852 2.89291 28.5144 2.89291C29.9433 2.89291 31.1062 4.05404 31.1062 5.48136C31.1062 5.52646 31.1094 5.57157 31.1157 5.61618C31.1169 5.62555 31.2204 6.56387 30.6423 7.23772C30.1684 7.78982 29.3313 8.06981 28.1543 8.06981C27.6365 8.06981 27.2168 8.4935 27.2168 9.01627C27.2168 9.53879 27.6365 9.96247 28.1543 9.96247C29.8996 9.96247 31.2136 9.46263 32.0593 8.47699C33.0967 7.26829 33.0205 5.79882 32.9807 5.42147ZM20.7512 14.8569C19.9631 15.3134 19.0696 15.6101 18.095 15.7388C14.8291 16.1696 9.11352 15.8968 7.53076 9.22848C6.71045 5.77294 5.13476 4.97437 3.31006 4.04985C3.23828 4.01362 3.16601 3.97689 3.09302 3.93968C3.14184 3.90098 3.19775 3.87017 3.25903 3.84971C5.27807 3.17487 7.13891 3.52659 9.4812 5.02613C12.0039 6.64101 14.8455 7.56874 17.6992 7.70947C19.1567 7.78119 20.4475 7.72549 21.5364 7.54359C22.3183 7.41321 23.3667 7.02502 24.1606 6.69819C24.2217 7.37673 24.2507 8.29534 24.1296 9.28961C23.8162 11.8665 22.6794 13.7397 20.7512 14.8569ZM12.1934 17.7867H20.1301C20.5032 17.7867 20.8066 18.0874 20.8066 18.4569V19.1073H11.5166V18.4569C11.5166 18.0874 11.8203 17.7867 12.1934 17.7867Z" fill="black" stroke="#EDEDED"/>
</svg>
