<svg width="31" height="20" viewBox="0 0 31 20" fill="none" xmlns="http://www.w3.org/2000/svg">
<path d="M0 0.970173C0 0.712867 0.102064 0.4661 0.28374 0.284157C0.465416 0.102214 0.711821 0 0.96875 0H30.0312C30.2882 0 30.5346 0.102214 30.7163 0.284157C30.8979 0.4661 31 0.712867 31 0.970173C31 1.22748 30.8979 1.47425 30.7163 1.65619C30.5346 1.83813 30.2882 1.94035 30.0312 1.94035H0.96875C0.711821 1.94035 0.465416 1.83813 0.28374 1.65619C0.102064 1.47425 0 1.22748 0 0.970173ZM30.0312 9.02983H0.96875C0.711821 9.02983 0.465416 9.13204 0.28374 9.31398C0.102064 9.49593 0 9.74269 0 10C0 10.2573 0.102064 10.5041 0.28374 10.686C0.465416 10.868 0.711821 10.9702 0.96875 10.9702H30.0312C30.2882 10.9702 30.5346 10.868 30.7163 10.686C30.8979 10.5041 31 10.2573 31 10C31 9.74269 30.8979 9.49593 30.7163 9.31398C30.5346 9.13204 30.2882 9.02983 30.0312 9.02983ZM15.5 18.0597H0.96875C0.711821 18.0597 0.465416 18.1619 0.28374 18.3438C0.102064 18.5258 0 18.7725 0 19.0298C0 19.2871 0.102064 19.5339 0.28374 19.7158C0.465416 19.8978 0.711821 20 0.96875 20H15.5C15.7569 20 16.0033 19.8978 16.185 19.7158C16.3667 19.5339 16.4688 19.2871 16.4688 19.0298C16.4688 18.7725 16.3667 18.5258 16.185 18.3438C16.0033 18.1619 15.7569 18.0597 15.5 18.0597Z" fill="black"/>
</svg>
