<svg width="24" height="24" viewBox="0 0 24 24" fill="none" xmlns="http://www.w3.org/2000/svg">
<path d="M13.3134 12L23.728 1.5854C23.8142 1.49916 23.8826 1.39678 23.9293 1.2841C23.976 1.17143 24 1.05066 24 0.928705C24 0.806745 23.976 0.68598 23.9293 0.573304C23.8826 0.460629 23.8142 0.358249 23.728 0.272011C23.6417 0.185773 23.5394 0.117365 23.4267 0.0706929C23.314 0.0240211 23.1933 0 23.0713 0C22.9493 0 22.8286 0.0240211 22.7159 0.0706929C22.6032 0.117365 22.5008 0.185773 22.4146 0.272011L12 10.6866L1.5854 0.272011C1.41123 0.0978451 1.17501 -1.83514e-09 0.928705 0C0.682397 1.83513e-09 0.446177 0.0978451 0.272011 0.272011C0.0978451 0.446177 1.83514e-09 0.682397 0 0.928705C-1.83514e-09 1.17501 0.0978451 1.41123 0.272011 1.5854L10.6866 12L0.272011 22.4146C0.0978451 22.5888 -6.3571e-09 22.825 0 23.0713C6.3571e-09 23.3176 0.0978451 23.5538 0.272011 23.728C0.446177 23.9022 0.682397 24 0.928705 24C1.17501 24 1.41123 23.9022 1.5854 23.728L12 13.3134L22.4146 23.728C22.5008 23.8142 22.6032 23.8826 22.7159 23.9293C22.8286 23.976 22.9493 24 23.0713 24C23.1933 24 23.314 23.976 23.4267 23.9293C23.5394 23.8826 23.6418 23.8142 23.728 23.728C23.8142 23.6418 23.8826 23.5394 23.9293 23.4267C23.976 23.314 24 23.1933 24 23.0713C24 22.9493 23.976 22.8286 23.9293 22.7159C23.8826 22.6032 23.8142 22.5008 23.728 22.4146L13.3134 12Z" fill="black"/>
</svg>
