<svg width="16" height="24" viewBox="0 0 16 24" fill="none" xmlns="http://www.w3.org/2000/svg">
<path d="M14.8957 8.43753H14.422L13.7467 6.5652C13.6955 6.42336 13.5557 6.32816 13.3986 6.32816H9.10429V3.47408L13.5432 2.01355C13.7354 1.95031 13.8375 1.7502 13.7713 1.56664L13.2917 0.237079C13.26 0.148907 13.1927 0.0764385 13.105 0.0355635C13.0172 -0.00526465 12.9162 -0.0111709 12.8238 0.0192041L8.13674 1.56139C7.39441 1.80561 6.89571 2.47349 6.89571 3.22334V6.32816H2.60137C2.44432 6.32816 2.30449 6.42336 2.25335 6.5652L1.57796 8.43753H1.10429C0.495411 8.43753 0 8.91069 0 9.49222C0 10.0737 0.495411 10.5469 1.10429 10.5469H1.50945L2.97153 23.6856C2.99141 23.8644 3.14935 24 3.33757 24H12.6624C12.8507 24 13.0086 23.8644 13.0285 23.6856L14.4906 10.5469H14.8957C15.5046 10.5469 16 10.0738 16 9.49222C16 8.91064 15.5046 8.43753 14.8957 8.43753ZM7.6319 3.22334C7.6319 2.77344 7.93114 2.37275 8.37654 2.22617L12.7156 0.798454L12.9554 1.46324L8.61629 2.89095C8.46783 2.9398 8.3681 3.0733 8.3681 3.22334V6.32816H7.6319V3.22334ZM12.3314 23.2969H3.66861L2.24977 10.5469H13.7502L12.3314 23.2969ZM14.8957 9.84378H1.10429C0.901301 9.84378 0.736196 9.68609 0.736196 9.49222C0.736196 9.29834 0.901301 9.14066 1.10429 9.14066H1.84049C1.99755 9.14066 2.13737 9.04545 2.18852 8.90361L2.86385 7.03128H13.1361L13.6433 8.43753H3.39779C3.19445 8.43753 3.02969 8.59494 3.02969 8.78909C3.02969 8.98325 3.19445 9.14066 3.39779 9.14066H14.1509C14.1566 9.1408 14.1624 9.1408 14.168 9.14066H14.8957C15.0987 9.14066 15.2638 9.29834 15.2638 9.49222C15.2638 9.68609 15.0987 9.84378 14.8957 9.84378Z" fill="black"/>
</svg>
