<svg width="40" height="40" viewBox="0 0 40 40" fill="none" xmlns="http://www.w3.org/2000/svg">
<rect y="-3.05176e-05" width="40" height="40" rx="20" fill="black"/>
<path d="M26.3071 18.8385L15.968 14.1294C15.287 13.8187 14.4673 14.0865 14.1372 14.7275C13.9689 15.0544 13.9548 15.4329 14.0984 15.77L15.7136 19.5694H27C26.8812 19.2489 26.6319 18.9859 26.3071 18.8385Z" fill="white"/>
<path d="M15.7136 20.4291L14.0984 24.2293C13.8181 24.8928 14.1624 25.6445 14.8672 25.9084C15.0268 25.9681 15.1969 25.9991 15.3687 25.9998C15.5762 25.9998 15.7811 25.9558 15.968 25.8709L26.307 21.16C26.6319 21.0126 26.8812 20.7496 27 20.4291H15.7136Z" fill="white"/>
</svg>
