<svg width="24" height="24" viewBox="0 0 24 24" fill="none" xmlns="http://www.w3.org/2000/svg">
<path d="M20.4853 3.51473C18.2188 1.24821 15.2053 0 12 0C8.79468 0 5.78125 1.24821 3.51473 3.51473C1.24821 5.7812 0 8.79468 0 12C0 15.2053 1.24821 18.2188 3.51473 20.4853C5.78125 22.7518 8.79473 24 12 24C15.2053 24 18.2188 22.7518 20.4853 20.4853C22.7518 18.2188 24 15.2053 24 12C24 8.79468 22.7518 5.7812 20.4853 3.51473ZM19.9355 19.9355C17.8159 22.0551 14.9977 23.2225 12 23.2225C9.00233 23.2225 6.18417 22.0551 4.0645 19.9354C1.94483 17.8158 0.777538 14.9976 0.777538 12C0.777538 9.00238 1.94488 6.18417 4.06455 4.0645C6.18417 1.94488 9.00238 0.777538 12 0.777538C14.9976 0.777538 17.8158 1.94488 19.9355 4.0645C22.0551 6.18417 23.2225 9.00238 23.2225 12C23.2225 14.9976 22.0551 17.8158 19.9355 19.9355Z" fill="black"/>
<path d="M21.9853 10.7527C21.8754 10.5097 21.7716 10.2801 21.729 10.0648C21.684 9.83725 21.692 9.57844 21.7005 9.30443C21.7134 8.88555 21.7268 8.45241 21.5564 8.04155C21.3827 7.62257 21.0636 7.32373 20.7551 7.0348C20.5582 6.85037 20.3721 6.67615 20.2473 6.48969C20.1205 6.30028 20.0294 6.05987 19.9331 5.80541C19.7841 5.41208 19.63 5.00537 19.3126 4.68788C18.9951 4.37044 18.5885 4.21638 18.1952 4.06735C17.9407 3.97094 17.7003 3.87986 17.5109 3.75307C17.3244 3.6282 17.1502 3.44216 16.9657 3.24518C16.6767 2.9366 16.3779 2.61755 15.9589 2.4438C15.5479 2.27336 15.1147 2.28674 14.6958 2.29965C14.4218 2.30815 14.1629 2.31613 13.9353 2.27108C13.72 2.22847 13.4904 2.1247 13.2474 2.01481C12.8784 1.8479 12.46 1.65875 12 1.65875C11.54 1.65875 11.1217 1.84784 10.7526 2.01476C10.5096 2.12465 10.28 2.22842 10.0647 2.27103C9.8372 2.31603 9.57839 2.30804 9.30438 2.29959C8.88545 2.28663 8.45236 2.27331 8.04146 2.44365C7.62247 2.6174 7.32363 2.93645 7.0347 3.24498C6.85027 3.4419 6.67605 3.62794 6.48959 3.75276C6.30019 3.87955 6.05977 3.97063 5.80531 4.06699C5.41198 4.21596 5.00522 4.37002 4.68778 4.68746C4.37034 5.00491 4.21628 5.41156 4.06725 5.80489C3.97084 6.0594 3.87976 6.29977 3.75297 6.48917C3.6281 6.67568 3.44206 6.8499 3.24509 7.03438C2.93651 7.32337 2.61746 7.62215 2.4437 8.04119C2.27327 8.45215 2.28659 8.88534 2.29955 9.30428C2.308 9.57833 2.31598 9.83715 2.27093 10.0647C2.22832 10.28 2.12455 10.5096 2.01466 10.7526C1.8479 11.1216 1.65875 11.54 1.65875 12C1.65875 12.46 1.84785 12.8783 2.01476 13.2474C2.12465 13.4904 2.22843 13.72 2.27104 13.9353C2.31603 14.1628 2.30805 14.4217 2.2996 14.6957C2.28664 15.1146 2.27332 15.5477 2.44365 15.9585C2.6174 16.3775 2.93645 16.6764 3.24493 16.9653C3.44191 17.1497 3.62789 17.324 3.75271 17.5104C3.8795 17.6998 3.97058 17.9402 4.06699 18.1947C4.21597 18.5881 4.37003 18.9948 4.68742 19.3122C5.00481 19.6297 5.41156 19.7837 5.80484 19.9328C6.05936 20.0292 6.29972 20.1202 6.48913 20.247C6.67563 20.3719 6.8498 20.5579 7.03429 20.7549C7.32327 21.0634 7.62205 21.3825 8.04109 21.5562C8.452 21.7267 8.88519 21.7134 9.30418 21.7004C9.57823 21.692 9.83705 21.684 10.0647 21.729C10.28 21.7716 10.5095 21.8754 10.7526 21.9853C11.1217 22.1522 11.54 22.3413 12.0001 22.3413C12.46 22.3413 12.8783 22.1522 13.2474 21.9853C13.4904 21.8754 13.72 21.7716 13.9353 21.729C14.1629 21.684 14.4217 21.692 14.6956 21.7005C15.1146 21.7134 15.5477 21.7268 15.9585 21.5564C16.3775 21.3827 16.6763 21.0636 16.9653 20.7551C17.1497 20.5582 17.3239 20.3722 17.5104 20.2473C17.6998 20.1206 17.9402 20.0295 18.1947 19.9331C18.588 19.7841 18.9947 19.63 19.3122 19.3126C19.6296 18.9952 19.7837 18.5885 19.9327 18.1952C20.0291 17.9407 20.1202 17.7003 20.247 17.5109C20.3719 17.3244 20.5579 17.1503 20.7548 16.9658C21.0634 16.6768 21.3824 16.378 21.5563 15.959C21.7267 15.548 21.7133 15.1148 21.7004 14.6959C21.692 14.4218 21.684 14.163 21.729 13.9354C21.7716 13.7201 21.8754 13.4906 21.9852 13.2475C22.1521 12.8784 22.3413 12.4601 22.3413 12.0001C22.3413 11.54 22.1522 11.1217 21.9853 10.7527ZM21.2768 12.9271C21.1536 13.1996 21.0262 13.4813 20.9662 13.7845C20.9041 14.0987 20.9138 14.4144 20.9232 14.7198C20.934 15.0719 20.9443 15.4046 20.838 15.6611C20.7284 15.9251 20.483 16.1549 20.2233 16.3982C20.003 16.6045 19.7752 16.8178 19.6009 17.0783C19.4245 17.3416 19.3132 17.6355 19.2055 17.9197C19.0802 18.2508 18.9617 18.5635 18.7624 18.7628C18.563 18.9621 18.2504 19.0805 17.9192 19.2059C17.635 19.3136 17.3412 19.4249 17.0778 19.6012C16.8173 19.7756 16.604 20.0033 16.3977 20.2236C16.1544 20.4834 15.9247 20.7287 15.6607 20.8381C15.4044 20.9444 15.0718 20.9342 14.7196 20.9233C14.4143 20.9138 14.0985 20.9041 13.7844 20.9663C13.4812 21.0262 13.1994 21.1536 12.927 21.2768C12.6007 21.4244 12.2924 21.5637 12 21.5637C11.7075 21.5637 11.3993 21.4243 11.0729 21.2768C10.8004 21.1536 10.5187 21.0262 10.2156 20.9662C10.0162 20.9268 9.81626 20.9163 9.61867 20.9163C9.50489 20.9163 9.39183 20.9198 9.28023 20.9232C8.9279 20.9341 8.59532 20.9443 8.33894 20.838C8.07489 20.7285 7.8451 20.4831 7.60178 20.2233C7.39553 20.0031 7.18223 19.7753 6.9217 19.6009C6.65837 19.4246 6.36446 19.3133 6.0803 19.2056C5.74922 19.0802 5.4365 18.9617 5.23724 18.7624C5.03793 18.5631 4.91949 18.2504 4.7941 17.9193C4.68643 17.6351 4.57514 17.3412 4.39885 17.0778C4.22442 16.8173 3.9967 16.604 3.7764 16.3978C3.51665 16.1545 3.27131 15.9248 3.16189 15.6607C3.05557 15.4044 3.06584 15.0718 3.07672 14.7197C3.08616 14.4143 3.0959 14.0985 3.03375 13.7844C2.97378 13.4812 2.84642 13.1995 2.7232 12.927C2.57568 12.6007 2.43629 12.2924 2.43629 12C2.43629 11.7076 2.57568 11.3993 2.72325 11.0729C2.84642 10.8005 2.97383 10.5187 3.0338 10.2156C3.09595 9.90137 3.08621 9.58564 3.07683 9.28028C3.06599 8.92805 3.05573 8.59542 3.16204 8.33899C3.27157 8.07494 3.51691 7.84515 3.77671 7.60183C3.99702 7.39558 4.22478 7.18227 4.39916 6.92174C4.5755 6.65837 4.6868 6.36451 4.79446 6.08029C4.91985 5.74922 5.03835 5.43654 5.23765 5.23724C5.43696 5.03793 5.74969 4.91953 6.08077 4.79409C6.36493 4.68648 6.65884 4.57514 6.92216 4.39884C7.18269 4.22441 7.396 3.9967 7.60225 3.77645C7.84552 3.5167 8.07525 3.27136 8.3393 3.16188C8.59569 3.05562 8.92826 3.06593 9.28038 3.07672C9.5857 3.0862 9.90148 3.0959 10.2157 3.03374C10.5188 2.97377 10.8005 2.84641 11.073 2.7232C11.3994 2.57567 11.7076 2.43628 12 2.43628C12.2924 2.43628 12.6007 2.57567 12.9271 2.72325C13.1995 2.84641 13.4813 2.97382 13.7845 3.0338C14.0986 3.09595 14.4143 3.0862 14.7197 3.07682C15.072 3.06593 15.4046 3.05567 15.661 3.16204C15.9251 3.27157 16.1549 3.51696 16.3981 3.77671C16.6044 3.99701 16.8177 4.22478 17.0783 4.3992C17.3416 4.57555 17.6355 4.68684 17.9197 4.79451C18.2508 4.9199 18.5635 5.03839 18.7628 5.2377C18.9621 5.43701 19.0805 5.74974 19.2059 6.08081C19.3135 6.36498 19.4249 6.65889 19.6012 6.92221C19.7756 7.18274 20.0033 7.39604 20.2236 7.6023C20.4833 7.84556 20.7286 8.0753 20.8381 8.33935C20.9444 8.59568 20.9341 8.92826 20.9233 9.28043C20.9139 9.5858 20.9041 9.90153 20.9663 10.2157C21.0262 10.5188 21.1536 10.8006 21.2768 11.073C21.4243 11.3994 21.5637 11.7076 21.5637 12C21.5637 12.2925 21.4244 12.6007 21.2768 12.9271Z" fill="black"/>
<path d="M9.51187 8.65659C10.4122 8.65659 11.1447 7.9241 11.1447 7.02376C11.1447 6.12342 10.4123 5.39093 9.51187 5.39093C8.61148 5.39093 7.87904 6.12342 7.87904 7.02376C7.87904 7.9241 8.61154 8.65659 9.51187 8.65659ZM9.51187 6.16847C9.98348 6.16847 10.3672 6.55216 10.3672 7.02376C10.3672 7.49536 9.98348 7.87905 9.51187 7.87905C9.04027 7.87905 8.65658 7.49536 8.65658 7.02376C8.65658 6.55216 9.04027 6.16847 9.51187 6.16847Z" fill="black"/>
<path d="M18.1944 9.92656C18.1944 9.02623 17.4619 8.29374 16.5616 8.29374C15.6612 8.29374 14.9287 9.02623 14.9287 9.92656C14.9287 10.8269 15.6612 11.5594 16.5616 11.5594C17.4619 11.5594 18.1944 10.8269 18.1944 9.92656ZM16.5616 10.7819C16.09 10.7819 15.7063 10.3982 15.7063 9.92656C15.7063 9.45496 16.09 9.07127 16.5616 9.07127C17.0332 9.07127 17.4168 9.45496 17.4168 9.92656C17.4168 10.3982 17.0332 10.7819 16.5616 10.7819Z" fill="black"/>
<path d="M14.0734 15.7581C13.1731 15.7581 12.4406 16.4906 12.4406 17.3909C12.4406 18.2913 13.1731 19.0238 14.0734 19.0238C14.9738 19.0238 15.7063 18.2913 15.7063 17.3909C15.7063 16.4906 14.9738 15.7581 14.0734 15.7581ZM14.0734 18.2462C13.6018 18.2462 13.2182 17.8625 13.2182 17.3909C13.2182 16.9193 13.6018 16.5356 14.0734 16.5356C14.545 16.5356 14.9287 16.9193 14.9287 17.3909C14.9287 17.8625 14.5451 18.2462 14.0734 18.2462Z" fill="black"/>
<path d="M9.48597 13.6587C9.48597 12.7584 8.75347 12.0259 7.85314 12.0259C6.95275 12.0259 6.22031 12.7584 6.22031 13.6587C6.22031 14.5591 6.9528 15.2916 7.85314 15.2916C8.75352 15.2916 9.48597 14.5591 9.48597 13.6587ZM7.85314 14.514C7.38148 14.514 6.99784 14.1303 6.99784 13.6587C6.99784 13.1871 7.38153 12.8035 7.85314 12.8035C8.32474 12.8035 8.70843 13.1871 8.70843 13.6587C8.70843 14.1303 8.32479 14.514 7.85314 14.514Z" fill="black"/>
<path d="M13.6328 12.8294C13.6328 12.1577 13.0864 11.6112 12.4147 11.6112C11.743 11.6112 11.1965 12.1577 11.1965 12.8294C11.1965 13.5011 11.743 14.0475 12.4147 14.0475C13.0864 14.0475 13.6328 13.5011 13.6328 12.8294ZM12.4147 13.27C12.1717 13.27 11.9741 13.0723 11.9741 12.8294C11.9741 12.5864 12.1717 12.3888 12.4147 12.3888C12.6576 12.3888 12.8553 12.5864 12.8553 12.8294C12.8553 13.0723 12.6577 13.27 12.4147 13.27Z" fill="black"/>
<path d="M14.0734 7.41253C14.7451 7.41253 15.2916 6.86607 15.2916 6.19438C15.2916 5.5227 14.7451 4.97624 14.0734 4.97624C13.4017 4.97624 12.8553 5.5227 12.8553 6.19438C12.8553 6.86607 13.4017 7.41253 14.0734 7.41253ZM14.0734 5.75378C14.3164 5.75378 14.514 5.95143 14.514 6.19438C14.514 6.43734 14.3164 6.63499 14.0734 6.63499C13.8305 6.63499 13.6328 6.43734 13.6328 6.19438C13.6328 5.95143 13.8305 5.75378 14.0734 5.75378Z" fill="black"/>
<path d="M17.8056 12.8553C17.1339 12.8553 16.5875 13.4017 16.5875 14.0734C16.5875 14.7451 17.1339 15.2916 17.8056 15.2916C18.4773 15.2916 19.0238 14.7451 19.0238 14.0734C19.0238 13.4017 18.4773 12.8553 17.8056 12.8553ZM17.8056 14.514C17.5627 14.514 17.365 14.3164 17.365 14.0734C17.365 13.8305 17.5627 13.6328 17.8056 13.6328C18.0486 13.6328 18.2462 13.8305 18.2462 14.0734C18.2462 14.3164 18.0486 14.514 17.8056 14.514Z" fill="black"/>
<path d="M9.51187 16.5875C8.84019 16.5875 8.29373 17.1339 8.29373 17.8056C8.29373 18.4773 8.84019 19.0238 9.51187 19.0238C10.1836 19.0238 10.73 18.4773 10.73 17.8056C10.73 17.1339 10.1836 16.5875 9.51187 16.5875ZM9.51187 18.2462C9.26892 18.2462 9.07127 18.0486 9.07127 17.8056C9.07127 17.5627 9.26892 17.365 9.51187 17.365C9.75483 17.365 9.95248 17.5627 9.95248 17.8056C9.95248 18.0486 9.75488 18.2462 9.51187 18.2462Z" fill="black"/>
<path d="M6.19438 10.73C6.86607 10.73 7.41253 10.1836 7.41253 9.51188C7.41253 8.84019 6.86607 8.29374 6.19438 8.29374C5.5227 8.29374 4.97624 8.84019 4.97624 9.51188C4.97624 10.1836 5.5227 10.73 6.19438 10.73ZM6.19438 9.07127C6.43734 9.07127 6.63499 9.26892 6.63499 9.51188C6.63499 9.75483 6.43734 9.95248 6.19438 9.95248C5.95143 9.95248 5.75378 9.75483 5.75378 9.51188C5.75378 9.26892 5.95143 9.07127 6.19438 9.07127Z" fill="black"/>
<path d="M10.5151 9.57885C10.3232 9.48285 10.0896 9.56066 9.99354 9.75271C9.89749 9.94476 9.97534 10.1783 10.1674 10.2743L10.9968 10.689C11.0526 10.7169 11.1119 10.7301 11.1703 10.7301C11.3129 10.7301 11.4502 10.6513 11.5183 10.5151C11.6144 10.3231 11.5365 10.0895 11.3445 9.99354L10.5151 9.57885Z" fill="black"/>
<path d="M12.8294 9.48596C12.9288 9.48596 13.0284 9.44802 13.1043 9.37208L13.5189 8.95739C13.6708 8.80556 13.6708 8.5594 13.5189 8.40762C13.3671 8.25579 13.1209 8.25579 12.9692 8.40762L12.5545 8.82231C12.4027 8.97414 12.4027 9.2203 12.5545 9.37208C12.6304 9.44802 12.7299 9.48596 12.8294 9.48596Z" fill="black"/>
<path d="M11.4456 15.0426L11.0309 14.6279C10.879 14.4761 10.6329 14.4761 10.4811 14.6279C10.3293 14.7798 10.3293 15.0259 10.4811 15.1777L10.8958 15.5924C10.9717 15.6683 11.0712 15.7063 11.1707 15.7063C11.2701 15.7063 11.3697 15.6683 11.4456 15.5924C11.5974 15.4406 11.5974 15.1944 11.4456 15.0426Z" fill="black"/>
<path d="M15.1777 12.9692C15.0259 12.8173 14.7797 12.8173 14.628 12.9692C14.4761 13.121 14.4761 13.3672 14.628 13.5189L15.0427 13.9336C15.1185 14.0095 15.2181 14.0475 15.3175 14.0475C15.417 14.0475 15.5165 14.0096 15.5924 13.9336C15.7443 13.7818 15.7443 13.5356 15.5924 13.3839L15.1777 12.9692Z" fill="black"/>
<path d="M19.7052 10.8229L18.8758 11.2376C18.6838 11.3336 18.6059 11.5671 18.702 11.7592C18.7701 11.8954 18.9073 11.9741 19.05 11.9741C19.1084 11.9741 19.1677 11.9609 19.2235 11.933L20.0529 11.5183C20.245 11.4223 20.3228 11.1888 20.2268 10.9968C20.1308 10.8047 19.8973 10.7268 19.7052 10.8229Z" fill="black"/>
<path d="M5.22521 12.1398C5.07338 11.988 4.82721 11.988 4.67544 12.1398L4.26075 12.5545C4.10892 12.7063 4.10892 12.9525 4.26075 13.1043C4.33664 13.1802 4.43616 13.2181 4.53564 13.2181C4.63511 13.2181 4.73464 13.1802 4.81052 13.1043L5.22521 12.6896C5.37704 12.5378 5.37704 12.2916 5.22521 12.1398Z" fill="black"/>
<path d="M11.3104 4.81052C11.3864 4.88646 11.4858 4.9244 11.5853 4.9244C11.6848 4.9244 11.7843 4.88646 11.8602 4.81052C12.012 4.65869 12.012 4.41253 11.8602 4.26075L11.4455 3.84606C11.2937 3.69424 11.0475 3.69424 10.8957 3.84606C10.7439 3.99789 10.7439 4.24406 10.8957 4.39583L11.3104 4.81052Z" fill="black"/>
<path d="M11.5853 18.6609C11.3706 18.6609 11.1965 18.835 11.1965 19.0497V19.4644C11.1965 19.6791 11.3706 19.8531 11.5853 19.8531C11.8 19.8531 11.9741 19.6791 11.9741 19.4644V19.0497C11.9741 18.835 11.8001 18.6609 11.5853 18.6609Z" fill="black"/>
<path d="M17.1161 16.2867L16.7014 16.7014C16.5495 16.8532 16.5495 17.0994 16.7014 17.2511C16.7773 17.327 16.8768 17.365 16.9763 17.365C17.0757 17.365 17.1752 17.3271 17.2511 17.2511L17.6658 16.8364C17.8177 16.6846 17.8177 16.4384 17.6658 16.2867C17.514 16.1349 17.2679 16.1349 17.1161 16.2867Z" fill="black"/>
<path d="M6.46928 16.2867C6.31745 16.1348 6.07128 16.1348 5.9195 16.2867C5.76768 16.4385 5.76768 16.6847 5.9195 16.8364L6.33419 17.2511C6.41008 17.327 6.5096 17.365 6.60908 17.365C6.70855 17.365 6.80807 17.3271 6.88396 17.2511C7.03579 17.0993 7.03579 16.8531 6.88396 16.7014L6.46928 16.2867Z" fill="black"/>
<path d="M16.7013 6.46927C16.7772 6.54516 16.8768 6.58315 16.9762 6.58315C17.0757 6.58315 17.1752 6.54521 17.2511 6.46927C17.4029 6.31744 17.4029 6.07127 17.2511 5.9195L16.8364 5.50481C16.6846 5.35298 16.4384 5.35298 16.2867 5.50481C16.1348 5.65664 16.1348 5.90281 16.2867 6.05458L16.7013 6.46927Z" fill="black"/>
<path d="M18.2203 8.2419C18.3224 8.2419 18.423 8.20043 18.495 8.12786C18.5676 8.05581 18.6091 7.95525 18.6091 7.85313C18.6091 7.75102 18.5676 7.65045 18.495 7.5784C18.423 7.50583 18.3224 7.46436 18.2203 7.46436C18.1182 7.46436 18.0176 7.50583 17.9456 7.5784C17.873 7.65045 17.8315 7.75102 17.8315 7.85313C17.8315 7.95525 17.873 8.05581 17.9456 8.12786C18.0176 8.20043 18.1182 8.2419 18.2203 8.2419Z" fill="black"/>
<path d="M13.384 10.4812C13.3114 10.5533 13.27 10.6538 13.27 10.7559C13.27 10.8581 13.3114 10.9586 13.384 11.0307C13.4561 11.1032 13.5566 11.1447 13.6587 11.1447C13.7609 11.1447 13.8614 11.1032 13.9335 11.0307C14.006 10.9586 14.0475 10.8581 14.0475 10.7559C14.0475 10.6538 14.006 10.5533 13.9335 10.4812C13.8614 10.4086 13.7609 10.3672 13.6587 10.3672C13.5566 10.3672 13.4561 10.4086 13.384 10.4812Z" fill="black"/>
<path d="M8.40777 10.8959C8.3352 10.9679 8.29373 11.068 8.29373 11.1706C8.29373 11.2733 8.3352 11.3733 8.40777 11.4454C8.47982 11.5179 8.58038 11.5594 8.6825 11.5594C8.78462 11.5594 8.88518 11.5179 8.95723 11.4454C9.0298 11.3733 9.07127 11.2727 9.07127 11.1706C9.07127 11.0685 9.0298 10.9679 8.95723 10.8959C8.88518 10.8233 8.78514 10.7819 8.6825 10.7819C8.57987 10.7819 8.47982 10.8233 8.40777 10.8959Z" fill="black"/>
<path d="M6.60908 6.99784C6.71119 6.99784 6.81175 6.95637 6.88381 6.8838C6.95638 6.81175 6.99784 6.71119 6.99784 6.60907C6.99784 6.50644 6.95638 6.40639 6.88381 6.33434C6.81175 6.26177 6.71119 6.2203 6.60908 6.2203C6.50644 6.2203 6.4064 6.26177 6.33435 6.33434C6.26177 6.40639 6.22031 6.50644 6.22031 6.60907C6.22031 6.71119 6.26177 6.81175 6.33435 6.8838C6.4064 6.95637 6.50696 6.99784 6.60908 6.99784Z" fill="black"/>
<path d="M12.9693 14.6281C12.8968 14.7001 12.8553 14.8007 12.8553 14.9028C12.8553 15.0049 12.8968 15.1055 12.9693 15.1775C13.0414 15.2501 13.1419 15.2916 13.2441 15.2916C13.3467 15.2916 13.4467 15.2501 13.5188 15.1775C13.5914 15.1055 13.6328 15.0049 13.6328 14.9028C13.6328 14.8007 13.5914 14.7001 13.5188 14.6281C13.4467 14.5555 13.3467 14.514 13.2441 14.514C13.1419 14.514 13.0414 14.5555 12.9693 14.6281Z" fill="black"/>
<path d="M13.2441 19.4903C13.1419 19.4903 13.0414 19.5317 12.9693 19.6043C12.8968 19.6764 12.8553 19.7769 12.8553 19.879C12.8553 19.9817 12.8968 20.0817 12.9693 20.1538C13.0414 20.2263 13.1414 20.2678 13.2441 20.2678C13.3467 20.2678 13.4467 20.2263 13.5188 20.1538C13.5914 20.0817 13.6328 19.9817 13.6328 19.879C13.6328 19.7769 13.5914 19.6764 13.5188 19.6043C13.4467 19.5317 13.3467 19.4903 13.2441 19.4903Z" fill="black"/>
<path d="M5.36501 14.0993C5.26289 14.0993 5.16233 14.1408 5.09028 14.2134C5.01771 14.2854 4.97624 14.386 4.97624 14.4881C4.97624 14.5902 5.01771 14.6908 5.09028 14.7628C5.16233 14.8354 5.26289 14.8769 5.36501 14.8769C5.46713 14.8769 5.56769 14.8354 5.63974 14.7628C5.71231 14.6908 5.75378 14.5902 5.75378 14.4881C5.75378 14.386 5.71231 14.2854 5.63974 14.2134C5.56769 14.1408 5.46713 14.0993 5.36501 14.0993Z" fill="black"/>
</svg>
