<svg width="19" height="24" viewBox="0 0 19 24" fill="none" xmlns="http://www.w3.org/2000/svg">
<path d="M17.3552 16.9098C17.5463 16.9098 17.7012 16.7524 17.7012 16.5582V5.79567C17.7012 5.52759 17.7932 5.26565 17.9603 5.05814L18.5845 4.28287C18.8524 3.95015 19 3.53006 19 3.10012V0.351603C19 0.22954 18.9377 0.116243 18.8354 0.0522588C18.7331 -0.0117724 18.6054 -0.0172568 18.4983 0.0376338L16.823 0.895494L15.1476 0.0376338C15.0496 -0.0125224 14.9341 -0.0125224 14.8362 0.0376338L13.1611 0.895494L11.486 0.0376338C11.388 -0.0125224 11.2726 -0.0125224 11.1745 0.0376338L9.49947 0.895494L7.82448 0.0376338C7.72654 -0.0125224 7.61094 -0.0125224 7.51301 0.0376338L5.83825 0.895494L4.16326 0.0376338C4.06532 -0.0125224 3.94977 -0.0125224 3.85179 0.0376338L2.17675 0.895494L0.501759 0.0376338C0.39446 -0.0172568 0.26691 -0.0118662 0.164593 0.0522588C0.0622759 0.116243 0 0.229587 0 0.351603V3.10017C0 3.5301 0.147571 3.9502 0.415495 4.28292L1.03973 5.05818C1.20677 5.2657 1.2988 5.52764 1.2988 5.79567V18.2044C1.2988 18.4725 1.20681 18.7344 1.03973 18.9419L0.415495 19.7171C0.147571 20.0498 0 20.4699 0 20.8999V23.6484C0 23.7705 0.0622759 23.8838 0.164593 23.9478C0.220041 23.9825 0.282963 24 0.346023 24C0.399258 24 0.45263 23.9875 0.501713 23.9624L2.1767 23.1045L3.85174 23.9624C3.94972 24.0126 4.06528 24.0125 4.16321 23.9624L5.8382 23.1045L7.51296 23.9624C7.61094 24.0125 7.72645 24.0125 7.82443 23.9624L9.49942 23.1045L11.1745 23.9624C11.2725 24.0125 11.388 24.0125 11.4859 23.9624L13.1611 23.1045L14.8361 23.9624C14.9341 24.0125 15.0496 24.0125 15.1475 23.9624L16.8228 23.1045L18.4981 23.9624C18.6054 24.0173 18.733 24.0118 18.8353 23.9477C18.9375 23.8838 18.9999 23.7704 18.9999 23.6484V20.8998C18.9999 20.4699 18.8523 20.0498 18.5844 19.7171L17.9601 18.9418C17.7931 18.7343 17.7011 18.4724 17.7011 18.2043C17.7011 18.0101 17.5462 17.8527 17.355 17.8527C17.1639 17.8527 17.009 18.0101 17.009 18.2043C17.009 18.6343 17.1565 19.0544 17.4245 19.3871L18.0487 20.1623C18.2158 20.3698 18.3078 20.6318 18.3078 20.8998V21.0824H0.692047V20.8998C0.692047 20.6318 0.78403 20.3698 0.951114 20.1623L1.57535 19.3871C1.84327 19.0544 1.99084 18.6343 1.99084 18.2043V15.8479H17.0092V16.5581C17.0092 16.7524 17.1641 16.9098 17.3552 16.9098ZM18.3079 21.7858V23.0775L16.9786 22.3968C16.8807 22.3466 16.7652 22.3466 16.6672 22.3968L14.9919 23.2547L13.3168 22.3968C13.2678 22.3717 13.2145 22.3592 13.1611 22.3592C13.1077 22.3592 13.0544 22.3717 13.0054 22.3968L11.3302 23.2547L9.6552 22.3968C9.55727 22.3466 9.44172 22.3466 9.34373 22.3968L7.66874 23.2547L5.99398 22.3968C5.896 22.3467 5.78049 22.3466 5.68251 22.3968L4.00752 23.2547L2.33249 22.3968C2.23455 22.3467 2.11899 22.3466 2.02101 22.3968L0.692047 23.0775V21.7858H18.3079ZM0.692047 0.92254L2.02101 1.60317C2.11895 1.65332 2.2345 1.65332 2.33249 1.60317L4.00752 0.745306L5.68251 1.60317C5.78045 1.65332 5.89605 1.65332 5.99398 1.60317L7.66879 0.745306L9.34378 1.60317C9.44171 1.65332 9.55722 1.65332 9.65525 1.60317L11.3302 0.745306L13.0054 1.60317C13.1033 1.65332 13.2188 1.65332 13.3168 1.60317L14.9919 0.745306L16.6672 1.60317C16.7651 1.65332 16.8806 1.65332 16.9786 1.60317L18.3079 0.922494V2.21423H0.692047V0.92254ZM1.99084 15.1447V8.82768H4.2986C4.48972 8.82768 4.64463 8.67028 4.64463 8.47607C4.64463 8.28187 4.48972 8.12446 4.2986 8.12446H1.99084V5.79562C1.99084 5.36568 1.84327 4.94564 1.57535 4.61287L0.951068 3.8376C0.78403 3.63014 0.692 3.3682 0.692 3.10012V2.91759H18.3079V3.10012C18.3079 3.3682 18.2159 3.63014 18.0488 3.8376L17.4246 4.61287C17.1567 4.94568 17.0091 5.36573 17.0091 5.79567V8.12451H5.90532C5.71425 8.12451 5.5593 8.28192 5.5593 8.47612C5.5593 8.67032 5.7142 8.82773 5.90532 8.82773H17.0092V15.1448H1.99084V15.1447Z" fill="black"/>
</svg>
